<svg width="84" height="38" viewBox="0 0 84 38" fill="none" xmlns="http://www.w3.org/2000/svg">
<rect x="0.5" y="0.511719" width="83" height="36" rx="18" fill="white"/>
<rect x="0.5" y="0.511719" width="83" height="36" rx="18" stroke="#1B82C3"/>
<path d="M35 13.5117H36C36.5304 13.5117 37.0391 13.301 37.4142 12.9259C37.7893 12.5509 38 12.0422 38 11.5117C38 11.2465 38.1054 10.9921 38.2929 10.8046C38.4804 10.6171 38.7348 10.5117 39 10.5117H45C45.2652 10.5117 45.5196 10.6171 45.7071 10.8046C45.8946 10.9921 46 11.2465 46 11.5117C46 12.0422 46.2107 12.5509 46.5858 12.9259C46.9609 13.301 47.4696 13.5117 48 13.5117H49C49.5304 13.5117 50.0391 13.7224 50.4142 14.0975C50.7893 14.4726 51 14.9813 51 15.5117V24.5117C51 25.0422 50.7893 25.5509 50.4142 25.9259C50.0391 26.301 49.5304 26.5117 49 26.5117H35C34.4696 26.5117 33.9609 26.301 33.5858 25.9259C33.2107 25.5509 33 25.0422 33 24.5117V15.5117C33 14.9813 33.2107 14.4726 33.5858 14.0975C33.9609 13.7224 34.4696 13.5117 35 13.5117Z" stroke="#1B82C3" stroke-width="2" stroke-linecap="round" stroke-linejoin="round"/>
<path d="M39 19.5117C39 20.3074 39.3161 21.0704 39.8787 21.633C40.4413 22.1956 41.2044 22.5117 42 22.5117C42.7956 22.5117 43.5587 22.1956 44.1213 21.633C44.6839 21.0704 45 20.3074 45 19.5117C45 18.7161 44.6839 17.953 44.1213 17.3904C43.5587 16.8278 42.7956 16.5117 42 16.5117C41.2044 16.5117 40.4413 16.8278 39.8787 17.3904C39.3161 17.953 39 18.7161 39 19.5117Z" stroke="#1B82C3" stroke-width="2" stroke-linecap="round" stroke-linejoin="round"/>
</svg>
