<svg width="20" height="19" viewBox="0 0 20 19" fill="none" xmlns="http://www.w3.org/2000/svg">
<path d="M3 4.51172H4C4.53043 4.51172 5.03914 4.30101 5.41421 3.92593C5.78929 3.55086 6 3.04215 6 2.51172C6 2.2465 6.10536 1.99215 6.29289 1.80461C6.48043 1.61708 6.73478 1.51172 7 1.51172H13C13.2652 1.51172 13.5196 1.61708 13.7071 1.80461C13.8946 1.99215 14 2.2465 14 2.51172C14 3.04215 14.2107 3.55086 14.5858 3.92593C14.9609 4.30101 15.4696 4.51172 16 4.51172H17C17.5304 4.51172 18.0391 4.72243 18.4142 5.09751C18.7893 5.47258 19 5.98129 19 6.51172V15.5117C19 16.0422 18.7893 16.5509 18.4142 16.9259C18.0391 17.301 17.5304 17.5117 17 17.5117H3C2.46957 17.5117 1.96086 17.301 1.58579 16.9259C1.21071 16.5509 1 16.0422 1 15.5117V6.51172C1 5.98129 1.21071 5.47258 1.58579 5.09751C1.96086 4.72243 2.46957 4.51172 3 4.51172Z" stroke="#1B82C3" stroke-width="2" stroke-linecap="round" stroke-linejoin="round"/>
<path d="M7 10.5117C7 11.3074 7.31607 12.0704 7.87868 12.633C8.44129 13.1956 9.20435 13.5117 10 13.5117C10.7956 13.5117 11.5587 13.1956 12.1213 12.633C12.6839 12.0704 13 11.3074 13 10.5117C13 9.71607 12.6839 8.95301 12.1213 8.3904C11.5587 7.82779 10.7956 7.51172 10 7.51172C9.20435 7.51172 8.44129 7.82779 7.87868 8.3904C7.31607 8.95301 7 9.71607 7 10.5117Z" stroke="#1B82C3" stroke-width="2" stroke-linecap="round" stroke-linejoin="round"/>
</svg>
