<svg width="37" height="36" viewBox="0 0 37 36" fill="none" xmlns="http://www.w3.org/2000/svg">
<path d="M12.9375 18L16.6458 21.7083L24.0625 14.2917M1.8125 18C1.8125 20.1914 2.24413 22.3614 3.08276 24.386C3.92139 26.4106 5.15058 28.2503 6.70015 29.7998C8.24973 31.3494 10.0893 32.5786 12.114 33.4172C14.1386 34.2559 16.3086 34.6875 18.5 34.6875C20.6914 34.6875 22.8614 34.2559 24.886 33.4172C26.9106 32.5786 28.7503 31.3494 30.2998 29.7998C31.8494 28.2503 33.0786 26.4106 33.9172 24.386C34.7559 22.3614 35.1875 20.1914 35.1875 18C35.1875 15.8086 34.7559 13.6386 33.9172 11.614C33.0786 9.58935 31.8494 7.74973 30.2998 6.20016C28.7503 4.65058 26.9106 3.42139 24.886 2.58276C22.8614 1.74414 20.6914 1.3125 18.5 1.3125C16.3086 1.3125 14.1386 1.74414 12.114 2.58276C10.0893 3.42139 8.24973 4.65058 6.70015 6.20016C5.15058 7.74973 3.92139 9.58935 3.08276 11.614C2.24413 13.6386 1.8125 15.8086 1.8125 18Z" stroke="#1B82C3" stroke-width="2" stroke-linecap="round" stroke-linejoin="round"/>
</svg>
