<svg width="236" height="78" viewBox="0 0 236 78" fill="none" xmlns="http://www.w3.org/2000/svg">
<path fill-rule="evenodd" clip-rule="evenodd" d="M148.449 2.14062H222.009V75.7059H148.449V2.14062Z" fill="#FFEEBD"/>
<path fill-rule="evenodd" clip-rule="evenodd" d="M221.924 0.958008H149.621H148.37H147.108H76.0844H74.8335H73.5596H0V77.0424H73.5596H76.0844H147.113H149.627H223.198V0.958008H221.924ZM220.661 74.5176C218.251 74.5176 152.031 74.5176 149.621 74.5176V3.50582C152.031 3.50582 218.251 3.50582 220.661 3.50582C220.661 5.88723 220.661 72.1304 220.661 74.5176Z" fill="#2484C6"/>
<path fill-rule="evenodd" clip-rule="evenodd" d="M32.5881 14.3506H23.2748C20.8647 14.3506 18.8965 16.3131 18.8965 18.7232V62.8279H22.2878C22.2878 62.8279 22.2878 53.6696 22.2878 53.113C22.8445 53.113 33.0185 53.113 33.5407 53.113C33.5407 53.6696 33.5407 62.8279 33.5407 62.8279H36.9492V18.7232C36.9492 16.3188 34.9867 14.3506 32.5881 14.3506ZM22.2878 18.7232C22.2878 18.178 22.7297 17.7477 23.2806 17.7477H32.5939C33.1218 17.7477 33.5464 18.178 33.5464 18.7232C33.5464 18.7232 33.5464 31.9156 33.5464 32.4894C33.0185 32.4894 22.8444 32.4894 22.2936 32.4894C22.2878 31.9156 22.2878 18.7232 22.2878 18.7232ZM33.5407 35.9037C33.5407 36.4661 33.5407 49.1478 33.5407 49.7044C33.0128 49.7044 22.8387 49.7044 22.2878 49.7044C22.2878 49.1478 22.2878 36.4661 22.2878 35.9037C22.8445 35.9037 33.0128 35.9037 33.5407 35.9037Z" fill="white"/>
<path fill-rule="evenodd" clip-rule="evenodd" d="M59.0352 59.4309C58.4786 59.4309 58.0253 58.9775 58.0253 58.4324V18.7232C58.0253 16.3188 56.08 14.3506 53.6527 14.3506H44.3566C41.9408 14.3506 39.9668 16.3131 39.9668 18.7232V62.8279H43.3754V18.7232C43.3754 18.178 43.8115 17.7477 44.3566 17.7477H53.6527C54.1921 17.7477 54.6167 18.178 54.6167 18.7232V58.4324C54.6167 60.8654 56.5965 62.8279 59.0352 62.8279H59.3279V59.4309H59.0352Z" fill="white"/>
<path fill-rule="evenodd" clip-rule="evenodd" d="M131.615 17.7718V14.3633H131.328H113.642V17.7718C113.642 17.7718 116.087 17.7718 116.575 17.7718C116.575 18.3227 116.575 31.9742 116.575 32.5365C116.087 32.5365 113.642 32.5365 113.642 32.5365V35.9279C113.642 35.9279 115.972 35.9279 116.454 35.9279C116.271 38.5216 115.674 40.5587 114.853 41.385C114.584 41.672 114.297 41.8097 113.929 41.8097H113.637V45.201H113.929C115.209 45.201 116.374 44.7133 117.269 43.7664C119.26 41.7752 119.76 38.1314 119.897 35.9279C120.396 35.9279 125.538 35.9279 126.083 35.9279C126.083 36.5132 126.083 62.9095 126.083 62.9095H129.469C129.469 62.9095 129.469 36.5132 129.469 35.9279C129.916 35.9279 131.609 35.9279 131.609 35.9279V32.5365C131.609 32.5365 129.911 32.5365 129.469 32.5365C129.469 31.9742 129.469 18.3227 129.469 17.7718C129.922 17.7718 131.615 17.7718 131.615 17.7718ZM126.089 17.7718C126.089 18.3227 126.089 31.9742 126.089 32.5365C125.549 32.5365 120.483 32.5365 119.943 32.5365C119.943 31.9742 119.943 18.3227 119.943 17.7718C120.483 17.7718 125.549 17.7718 126.089 17.7718Z" fill="white"/>
<path fill-rule="evenodd" clip-rule="evenodd" d="M106.246 32.5365H100.18C99.7383 32.5365 99.3481 32.6628 98.9694 32.7948C98.9694 32.1119 98.9694 18.3227 98.9694 17.7718C99.526 17.7718 110.612 17.7718 110.612 17.7718V14.3633H110.314H92.6113V17.7718C92.6113 17.7718 95.0559 17.7718 95.5608 17.7718C95.5608 18.3399 95.5608 34.5564 95.5608 34.5564C95.5608 36.6165 95.1018 40.1283 93.8738 41.385C93.5754 41.672 93.2942 41.8097 92.9327 41.8097H92.6113V45.201H92.9327C94 45.201 94.964 44.8395 95.7904 44.1911C95.7904 45.4076 95.7904 58.4393 95.7904 58.4393C95.7904 60.8724 97.7471 62.8349 100.18 62.8349H106.246C108.656 62.8349 110.612 60.8724 110.612 58.4393V36.9436C110.612 34.5163 108.656 32.5365 106.246 32.5365ZM99.1874 36.9436C99.1874 36.364 99.6293 35.9279 100.18 35.9279H106.246C106.785 35.9279 107.227 36.364 107.227 36.9436V58.4336C107.227 58.996 106.779 59.4321 106.246 59.4321H100.18C99.6293 59.4321 99.1874 58.996 99.1874 58.4336V36.9436Z" fill="white"/>
<path fill-rule="evenodd" clip-rule="evenodd" d="M76.0835 73.1811V4.82617H73.5586C73.5586 7.24774 73.5586 70.7882 73.5586 73.1811H76.0835Z" fill="white"/>
<path fill-rule="evenodd" clip-rule="evenodd" d="M200.532 51.7303C201.881 51.7303 202.925 50.4334 202.925 48.6775C202.925 47.3347 202.242 45.6821 200.573 45.6821C198.897 45.6821 198.168 47.2314 198.168 48.7234C198.168 50.4277 199.132 51.7303 200.515 51.7303H200.532ZM200.486 52.8091C198.363 52.8091 196.716 51.2483 196.716 48.7751C196.716 46.1469 198.455 44.6148 200.624 44.6148C202.851 44.6148 204.383 46.2387 204.383 48.6316C204.383 51.5409 202.346 52.8091 200.509 52.8091H200.486ZM187.34 49.4809C187.34 49.6473 187.357 49.8366 187.38 49.9916C187.667 50.9786 188.528 51.6614 189.555 51.6614C191.041 51.6614 191.925 50.4334 191.925 48.666C191.925 47.0708 191.099 45.728 189.595 45.728C188.614 45.728 187.707 46.3879 187.42 47.4724C187.38 47.6389 187.346 47.834 187.346 48.0692V49.4809H187.34ZM185.934 41.1373H187.34V46.0264C187.879 45.1599 188.803 44.609 190.054 44.609C192.005 44.609 193.359 46.2043 193.359 48.5972C193.359 51.3975 191.575 52.8091 189.842 52.8091C188.688 52.8091 187.799 52.3672 187.185 51.3286L187.082 52.6369H185.877C185.917 52.0975 185.934 51.2942 185.934 50.5941V41.1373ZM180.242 48.6259C178.71 48.5972 176.936 48.8611 176.936 50.3703C176.936 51.3229 177.55 51.7532 178.285 51.7532C179.301 51.7532 179.955 51.0876 180.19 50.4277C180.242 50.2842 180.242 50.1121 180.242 49.9686V48.6259ZM181.659 50.7261C181.659 51.4204 181.682 52.0918 181.774 52.6312H180.483L180.351 51.6442C179.886 52.2582 179.031 52.8091 177.923 52.8091C176.317 52.8091 175.536 51.6844 175.536 50.531C175.536 48.666 177.195 47.6216 180.236 47.6274C180.236 46.8298 180.064 45.6477 178.446 45.6591C177.711 45.6591 176.942 45.8772 176.38 46.233L176.076 45.2976C176.718 44.8787 177.671 44.6033 178.658 44.6033C181.085 44.6033 181.665 46.2272 181.665 47.7881V50.7261H181.659ZM165.959 41.7169H167.365V51.4434H172.042V52.6312H165.959V41.7169ZM202.885 32.7364C201.319 32.702 199.551 32.9832 199.551 34.5038C199.551 35.4507 200.182 35.8638 200.882 35.8638C201.915 35.8638 202.587 35.2269 202.816 34.5555C202.856 34.4063 202.885 34.2571 202.885 34.1022V32.7364ZM204.262 34.8654C204.262 35.5425 204.291 36.1966 204.389 36.7303H203.092L202.977 35.7433C202.495 36.3573 201.628 36.9139 200.532 36.9139C198.937 36.9139 198.122 35.7892 198.122 34.6703C198.122 32.7709 199.809 31.7437 202.845 31.7609C202.845 30.9403 202.661 29.7582 201.055 29.7755C200.332 29.7755 199.551 29.982 199.012 30.3608L198.673 29.3967C199.327 28.9951 200.291 28.7081 201.267 28.7081C203.671 28.7081 204.262 30.355 204.262 31.9273V34.8654ZM193.044 32.0995C193.044 31.8929 193.027 31.6863 192.975 31.4912C192.774 30.6018 191.982 29.8443 190.909 29.8443C189.452 29.8443 188.568 31.1527 188.568 32.8569C188.568 34.4637 189.377 35.7663 190.869 35.7663C191.85 35.7663 192.717 35.1408 192.975 34.0792C193.027 33.8784 193.044 33.6947 193.044 33.4595V32.0995ZM194.467 25.2422V34.7219C194.467 35.422 194.467 36.1966 194.524 36.7303H193.233L193.176 35.3875C192.711 36.2426 191.787 36.9139 190.479 36.9139C188.602 36.9139 187.105 35.3244 187.105 32.9258C187.105 30.3034 188.746 28.7081 190.628 28.7081C191.856 28.7081 192.659 29.282 192.998 29.9074L193.038 25.2422H194.467ZM182.526 32.7364C180.982 32.702 179.203 32.9832 179.203 34.5038C179.203 35.4507 179.84 35.8638 180.523 35.8638C181.584 35.8638 182.244 35.2269 182.468 34.5555C182.526 34.4063 182.526 34.2571 182.526 34.1022V32.7364ZM183.931 34.8654C183.931 35.5425 183.949 36.1966 184.046 36.7303H182.755L182.629 35.7433C182.164 36.3573 181.292 36.9139 180.173 36.9139C178.595 36.9139 177.791 35.7892 177.791 34.6703C177.791 32.7709 179.478 31.7437 182.503 31.7609C182.503 30.9403 182.319 29.7582 180.701 29.7755C179.96 29.7755 179.203 29.982 178.652 30.3608L178.337 29.3967C178.991 28.9951 179.943 28.7081 180.925 28.7081C183.329 28.7081 183.931 30.355 183.931 31.9273V34.8654ZM167.371 25.8275V30.3952H172.673V25.8275H174.09V36.7303H172.673V31.6347H167.371V36.7303H165.965V25.8275H167.371Z" fill="#2484C6"/>
<path d="M228.014 3.91368C228.014 3.59233 228.26 3.33984 228.588 3.33984H230.894C231.703 3.33984 232.34 3.58085 232.759 3.98254C233.098 4.33257 233.293 4.81459 233.293 5.37695V5.39416C233.293 6.42706 232.696 7.05254 231.824 7.32224L233.058 8.88306C233.167 9.02078 233.241 9.14129 233.241 9.31918C233.241 9.63478 232.972 9.8471 232.696 9.8471C232.438 9.8471 232.271 9.7266 232.145 9.55445L230.579 7.55177H229.15V9.28475C229.15 9.60035 228.903 9.8471 228.588 9.8471C228.266 9.8471 228.014 9.60035 228.014 9.28475V3.91368ZM230.808 6.54183C231.617 6.54183 232.134 6.11719 232.134 5.46302V5.44581C232.134 4.75147 231.635 4.37848 230.797 4.37848H229.144V6.54757H230.808V6.54183Z" fill="#2484C6"/>
<path d="M230.419 12.1305C227.338 12.1305 224.836 9.62288 224.836 6.54713C224.836 3.47139 227.338 0.958008 230.419 0.958008C233.501 0.958008 236.003 3.46565 236.003 6.5414C236.003 9.61714 233.501 12.1305 230.419 12.1305ZM230.419 1.84171C227.826 1.84171 225.714 3.95341 225.714 6.54713C225.714 9.14086 227.826 11.2526 230.419 11.2526C233.013 11.2526 235.125 9.14086 235.125 6.54713C235.125 3.95341 233.013 1.84171 230.419 1.84171Z" fill="#2484C6"/>
</svg>
