<svg width="24" height="29" viewBox="0 0 24 29" fill="none" xmlns="http://www.w3.org/2000/svg">
<path d="M10.9275 6.13167C10.9275 5.60244 10.7173 5.09489 10.343 4.72066C9.96882 4.34644 9.46127 4.13621 8.93204 4.13621C8.40281 4.13621 7.89525 4.34644 7.52103 4.72066C7.14681 5.09489 6.93657 5.60244 6.93657 6.13167V16.109L4.98102 14.1534C4.5893 13.7622 4.07807 13.513 3.52853 13.4455C2.979 13.378 2.42267 13.4961 1.94791 13.781C1.50219 14.0482 1.1783 14.4788 1.04514 14.9811C0.911976 15.4834 0.980044 16.0179 1.23487 16.4708C3.73452 20.9141 5.19121 23.4536 5.60626 24.0909C5.69284 24.2241 5.77975 24.3571 5.86701 24.4899C6.59404 25.5939 7.58388 26.5001 8.74764 27.127C9.9114 27.7539 11.2126 28.082 12.5345 28.0818H12.2578H14.9184C17.0354 28.0818 19.0656 27.2408 20.5625 25.744C22.0594 24.2471 22.9003 22.2168 22.9003 20.0999V8.79229C22.9003 8.26306 22.6901 7.75551 22.3158 7.38128C21.9416 7.00706 21.4341 6.79683 20.9048 6.79683C20.3756 6.79683 19.868 7.00706 19.4938 7.38128C19.1196 7.75551 18.9094 8.26306 18.9094 8.79229M10.9275 6.13167V14.7787M10.9275 6.13167V3.47105C10.9275 3.209 10.9791 2.94952 11.0794 2.70742C11.1797 2.46532 11.3267 2.24534 11.512 2.06004C11.6973 1.87475 11.9172 1.72776 12.1593 1.62748C12.4014 1.5272 12.6609 1.47559 12.923 1.47559C13.185 1.47559 13.4445 1.5272 13.6866 1.62748C13.9287 1.72776 14.1487 1.87475 14.334 2.06004C14.5193 2.24534 14.6663 2.46532 14.7665 2.70742C14.8668 2.94952 14.9184 3.209 14.9184 3.47105V14.7787M14.9184 6.13167C14.9184 5.60244 15.1287 5.09489 15.5029 4.72066C15.8771 4.34644 16.3847 4.13621 16.9139 4.13621C17.4431 4.13621 17.9507 4.34644 18.3249 4.72066C18.6991 5.09489 18.9094 5.60244 18.9094 6.13167V14.7787" stroke="#FEFEFE" stroke-width="1.53218" stroke-linecap="round" stroke-linejoin="round"/>
</svg>
